<?xml version="1.0" encoding="UTF-8" standalone="no"?>
<!-- Created with Inkscape (http://www.inkscape.org/) -->

<svg
   width="210mm"
   height="297mm"
   viewBox="0 0 210 297"
   version="1.1"
   id="svg5"
   inkscape:version="1.1 (c68e22c387, 2021-05-23)"
   sodipodi:docname="Back v2b.svg"
   xmlns:inkscape="http://www.inkscape.org/namespaces/inkscape"
   xmlns:sodipodi="http://sodipodi.sourceforge.net/DTD/sodipodi-0.dtd"
   xmlns="http://www.w3.org/2000/svg"
   xmlns:svg="http://www.w3.org/2000/svg">
  <sodipodi:namedview
     id="namedview7"
     pagecolor="#ffffff"
     bordercolor="#666666"
     borderopacity="1.0"
     inkscape:pageshadow="2"
     inkscape:pageopacity="0.0"
     inkscape:pagecheckerboard="0"
     inkscape:document-units="mm"
     showgrid="false"
     inkscape:zoom="16.771207"
     inkscape:cx="190.95227"
     inkscape:cy="138.71989"
     inkscape:window-width="1920"
     inkscape:window-height="1017"
     inkscape:window-x="-8"
     inkscape:window-y="-8"
     inkscape:window-maximized="1"
     inkscape:current-layer="layer1" />
  <defs
     id="defs2" />
  <g
     inkscape:label="Layer 1"
     inkscape:groupmode="layer"
     id="layer1">
    <rect
       style="fill:none;stroke:#000000;stroke-width:0.0100131;stroke-miterlimit:4;stroke-dasharray:none"
       id="rect846"
       width="55.989986"
       height="86.98999"
       x="-55.994995"
       y="0.0050065694"
       ry="4.999424"
       transform="scale(-1,1)" />
    <circle
       style="fill:none;stroke:#000000;stroke-width:0.01;stroke-miterlimit:4;stroke-dasharray:none"
       id="path1333"
       cx="-50.994999"
       cy="84.504997"
       r="1.3"
       transform="scale(-1,1)" />
    <circle
       style="fill:none;stroke:#000000;stroke-width:0.01;stroke-miterlimit:4;stroke-dasharray:none"
       id="path1333-8"
       cx="-4.9949989"
       cy="84.504997"
       r="1.3"
       transform="scale(-1,1)" />
    <circle
       style="fill:none;stroke:#000000;stroke-width:0.01;stroke-miterlimit:4;stroke-dasharray:none"
       id="path1333-8-8"
       cx="-4.9949989"
       cy="2.5049999"
       r="1.3"
       transform="scale(-1,1)" />
    <circle
       style="fill:none;stroke:#000000;stroke-width:0.00996168;stroke-miterlimit:4;stroke-dasharray:none"
       id="path1333-8-5"
       cx="-51"
       cy="2.5"
       r="1.2950191"
       transform="scale(-1,1)" />
    <rect
       style="fill:none;stroke:#000000;stroke-width:0.0127081;stroke-miterlimit:4;stroke-dasharray:none"
       id="rect1903"
       width="2.9872918"
       height="6.4872918"
       x="-52.743649"
       y="32.256355"
       transform="scale(-1,1)" />
    <rect
       style="fill:none;stroke:#000000;stroke-width:0.0127082;stroke-miterlimit:4;stroke-dasharray:none"
       id="rect1903-0"
       width="2.9872921"
       height="6.4872918"
       x="-48.493649"
       y="32.256351"
       transform="scale(-1,1)" />
    <g
       aria-label="BATT"
       transform="matrix(0,-1,-1,0,56.094656,-1.0583333)"
       id="text10413"
       style="font-size:1.41111px;line-height:1.25;stroke-width:0.264583">
      <path
         d="m -42.757351,5.0653952 q 0,0.076481 -0.02894,0.1350476 -0.02894,0.058567 -0.07786,0.096463 -0.05788,0.045475 -0.127468,0.064768 -0.0689,0.019292 -0.1757,0.019292 h -0.363802 V 4.3550171 h 0.303857 q 0.112311,0 0.168121,0.00827 0.05581,0.00827 0.106798,0.034451 0.0565,0.029628 0.08199,0.076481 0.02549,0.046164 0.02549,0.110932 0,0.073036 -0.03721,0.1247123 -0.03721,0.050987 -0.09922,0.081993 v 0.00551 q 0.104042,0.02136 0.163987,0.091639 0.05994,0.069591 0.05994,0.1763888 z m -0.229443,-0.4623315 q 0,-0.037207 -0.0124,-0.062701 -0.0124,-0.025494 -0.03996,-0.041341 -0.03238,-0.018604 -0.07855,-0.022738 -0.04616,-0.00482 -0.114377,-0.00482 h -0.162608 v 0.296278 h 0.176389 q 0.06408,0 0.101974,-0.0062 0.0379,-0.00689 0.07028,-0.027561 0.03238,-0.020671 0.04548,-0.053055 0.01378,-0.033073 0.01378,-0.077859 z m 0.08751,0.4678437 q 0,-0.062012 -0.0186,-0.09853 -0.0186,-0.036518 -0.06752,-0.062012 -0.03307,-0.017225 -0.08062,-0.022049 -0.04685,-0.00551 -0.114377,-0.00551 h -0.214285 v 0.3817163 h 0.180523 q 0.08957,0 0.146761,-0.00896 0.05719,-0.00965 0.09371,-0.034451 0.03858,-0.026872 0.0565,-0.061323 0.01791,-0.034451 0.01791,-0.088883 z"
         id="path48493" />
      <path
         d="m -41.754829,5.3809657 h -0.145383 L -42.000808,5.095023 h -0.443728 l -0.100597,0.2859427 h -0.138493 l 0.373448,-1.0259486 h 0.181901 z m -0.28801,-0.4030759 -0.179833,-0.5036725 -0.180523,0.5036725 z"
         id="path48495" />
      <path
         d="m -40.950055,4.4762843 h -0.366558 v 0.9046814 h -0.136426 V 4.4762843 h -0.366558 V 4.3550171 h 0.869542 z"
         id="path48497" />
      <path
         d="m -40.128745,4.4762843 h -0.366558 v 0.9046814 h -0.136426 V 4.4762843 h -0.366557 V 4.3550171 h 0.869541 z"
         id="path48499" />
    </g>
    <g
       aria-label="PWR"
       transform="matrix(0,-1,-1,0,56,-1.0583333)"
       id="text10413-3"
       style="font-size:1.41111px;line-height:1.25;stroke-width:0.264583">
      <path
         d="m -42.552634,8.8209826 q 0,0.068213 -0.02412,0.1267794 -0.02343,0.057877 -0.06615,0.1005967 -0.05306,0.053054 -0.125402,0.079926 -0.07235,0.026183 -0.18259,0.026183 h -0.136425 V 9.536873 h -0.136426 V 8.5109242 h 0.278363 q 0.09233,0 0.156408,0.015847 0.06408,0.015158 0.113688,0.048231 0.05857,0.039274 0.09026,0.097841 0.03238,0.058566 0.03238,0.148139 z m -0.141938,0.00345 q 0,-0.053055 -0.0186,-0.092328 -0.0186,-0.039274 -0.0565,-0.064079 -0.03307,-0.021359 -0.07579,-0.030317 -0.04203,-0.00965 -0.106798,-0.00965 h -0.135047 v 0.409966 h 0.115066 q 0.08268,0 0.134358,-0.014469 0.05168,-0.015158 0.08406,-0.047542 0.03238,-0.033073 0.04548,-0.069591 0.01378,-0.036518 0.01378,-0.081993 z"
         id="path48520" />
      <path
         d="m -41.178731,8.5109242 -0.26665,1.0259487 h -0.153651 l -0.215663,-0.851627 -0.21084,0.851627 h -0.150206 l -0.271473,-1.0259487 h 0.139871 l 0.215663,0.853005 0.212217,-0.853005 h 0.138493 l 0.214285,0.8612732 0.214285,-0.8612732 z"
         id="path48522" />
      <path
         d="m -40.128667,9.5368729 h -0.177077 l -0.343132,-0.407899 h -0.192236 v 0.407899 h -0.136425 V 8.5109242 h 0.28732 q 0.09302,0 0.155029,0.012402 0.06201,0.011713 0.111621,0.042719 0.05581,0.03514 0.08682,0.088883 0.03169,0.053054 0.03169,0.1350476 0,0.110932 -0.05581,0.186035 -0.05581,0.074414 -0.153651,0.1123101 z M -40.447682,8.799623 q 0,-0.044097 -0.01585,-0.077859 -0.01516,-0.034451 -0.05099,-0.057878 -0.02963,-0.019982 -0.07028,-0.027561 -0.04065,-0.00827 -0.09577,-0.00827 h -0.160542 v 0.3872284 h 0.137804 q 0.06477,0 0.112999,-0.011024 0.04823,-0.011713 0.08199,-0.042719 0.03101,-0.028939 0.04548,-0.066146 0.01516,-0.037896 0.01516,-0.095774 z"
         id="path48524" />
    </g>
    <g
       aria-label="ON"
       id="text38160"
       style="font-size:1.41111px;line-height:1.25;stroke-width:0.264583"
       transform="matrix(-1,0,0,1,56,0)">
      <path
         d="m 12.955512,33.105027 q 0.0627,0.0689 0.09577,0.168809 0.03376,0.09991 0.03376,0.226687 0,0.12678 -0.03445,0.227376 -0.03376,0.09991 -0.09508,0.166743 -0.06339,0.06959 -0.150206,0.104731 -0.08613,0.03514 -0.19706,0.03514 -0.108175,0 -0.197059,-0.03583 -0.08819,-0.03583 -0.150206,-0.104042 -0.06201,-0.06821 -0.09577,-0.167432 -0.03307,-0.09922 -0.03307,-0.226687 0,-0.125401 0.03307,-0.22462 0.03307,-0.09991 0.09646,-0.170876 0.06063,-0.06752 0.150206,-0.103353 0.09026,-0.03583 0.19637,-0.03583 0.110243,0 0.197749,0.03652 0.08819,0.03583 0.149516,0.102664 z m -0.0124,0.395496 q 0,-0.199815 -0.08957,-0.307991 -0.08957,-0.108865 -0.244602,-0.108865 -0.156407,0 -0.245979,0.108865 -0.08888,0.108176 -0.08888,0.307991 0,0.201883 0.09095,0.30937 0.09095,0.106797 0.243912,0.106797 0.152963,0 0.243224,-0.106797 0.09095,-0.107487 0.09095,-0.30937 z"
         id="path48570" />
      <path
         d="M 14.084124,34.013153 H 13.915315 L 13.428868,33.09538 v 0.917773 h -0.127469 v -1.025949 h 0.211529 l 0.443728,0.837847 v -0.837847 h 0.127468 z"
         id="path48572" />
    </g>
    <g
       aria-label="OFF"
       id="text44762"
       style="font-size:1.41111px;line-height:1.25;stroke-width:0.264583"
       transform="matrix(-1,0,0,1,56,-1.492844)">
      <path
         d="m 12.576887,38.405777 q 0.0627,0.0689 0.09577,0.16881 0.03376,0.09991 0.03376,0.226687 0,0.126779 -0.03445,0.227376 -0.03376,0.09991 -0.09508,0.166743 -0.06339,0.06959 -0.150206,0.10473 -0.08613,0.03514 -0.197059,0.03514 -0.108176,0 -0.19706,-0.03583 -0.08819,-0.03583 -0.150206,-0.104041 -0.06201,-0.06821 -0.09577,-0.167432 -0.03307,-0.09922 -0.03307,-0.226687 0,-0.125401 0.03307,-0.22462 0.03307,-0.09991 0.09646,-0.170877 0.06063,-0.06752 0.150206,-0.103352 0.09026,-0.03583 0.196371,-0.03583 0.110242,0 0.197748,0.03652 0.08819,0.03583 0.149516,0.102663 z m -0.0124,0.395497 q 0,-0.199815 -0.08957,-0.307991 -0.08957,-0.108865 -0.244601,-0.108865 -0.156408,0 -0.24598,0.108865 -0.08888,0.108176 -0.08888,0.307991 0,0.201882 0.09095,0.309369 0.09095,0.106798 0.243913,0.106798 0.152962,0 0.243223,-0.106798 0.09095,-0.107487 0.09095,-0.309369 z"
         id="path48545" />
      <path
         d="M 13.578031,38.409222 H 13.0592 v 0.289388 h 0.445795 v 0.121267 H 13.0592 v 0.494027 h -0.136426 v -1.025949 h 0.655257 z"
         id="path48547" />
      <path
         d="m 14.389006,38.409222 h -0.518831 v 0.289388 h 0.445795 v 0.121267 h -0.445795 v 0.494027 h -0.136426 v -1.025949 h 0.655257 z"
         id="path48549" />
    </g>
  </g>
</svg>
