<?xml version="1.0" encoding="UTF-8" standalone="no"?>
<!-- Created with Inkscape (http://www.inkscape.org/) -->

<svg
   width="210mm"
   height="297mm"
   viewBox="0 0 210 297"
   version="1.1"
   id="svg5"
   inkscape:version="1.1 (c68e22c387, 2021-05-23)"
   sodipodi:docname="Front.svg"
   xmlns:inkscape="http://www.inkscape.org/namespaces/inkscape"
   xmlns:sodipodi="http://sodipodi.sourceforge.net/DTD/sodipodi-0.dtd"
   xmlns="http://www.w3.org/2000/svg"
   xmlns:svg="http://www.w3.org/2000/svg">
  <sodipodi:namedview
     id="namedview7"
     pagecolor="#ffffff"
     bordercolor="#666666"
     borderopacity="1.0"
     inkscape:pageshadow="2"
     inkscape:pageopacity="0.0"
     inkscape:pagecheckerboard="0"
     inkscape:document-units="mm"
     showgrid="false"
     inkscape:zoom="1.4936035"
     inkscape:cx="44.188433"
     inkscape:cy="183.78371"
     inkscape:window-width="1920"
     inkscape:window-height="1017"
     inkscape:window-x="-8"
     inkscape:window-y="-8"
     inkscape:window-maximized="1"
     inkscape:current-layer="layer1" />
  <defs
     id="defs2" />
  <g
     inkscape:label="Layer 1"
     inkscape:groupmode="layer"
     id="layer1">
    <rect
       style="fill:none;stroke:#000000;stroke-width:0.0100131;stroke-miterlimit:4;stroke-dasharray:none"
       id="rect846"
       width="55.989986"
       height="86.98999"
       x="-55.994995"
       y="0.0050065694"
       ry="4.999424"
       transform="scale(-1,1)" />
    <circle
       style="fill:none;stroke:#000000;stroke-width:0.01;stroke-miterlimit:4;stroke-dasharray:none"
       id="path1333"
       cx="-50.994999"
       cy="84.504997"
       r="1.3"
       transform="scale(-1,1)" />
    <circle
       style="fill:none;stroke:#000000;stroke-width:0.01;stroke-miterlimit:4;stroke-dasharray:none"
       id="path1333-8"
       cx="-4.9949989"
       cy="84.504997"
       r="1.3"
       transform="scale(-1,1)" />
    <circle
       style="fill:none;stroke:#000000;stroke-width:0.01;stroke-miterlimit:4;stroke-dasharray:none"
       id="path1333-8-8"
       cx="-4.9949989"
       cy="2.5049999"
       r="1.3"
       transform="scale(-1,1)" />
    <circle
       style="fill:none;stroke:#000000;stroke-width:0.00996168;stroke-miterlimit:4;stroke-dasharray:none"
       id="path1333-8-5"
       cx="-51"
       cy="2.5"
       r="1.2950191"
       transform="scale(-1,1)" />
    <rect
       style="fill:none;stroke:#000000;stroke-width:0.00996677;stroke-miterlimit:4;stroke-dasharray:none"
       id="rect49226"
       width="2.9900331"
       height="2.9900331"
       x="15.254983"
       y="39.504982" />
    <rect
       style="fill:none;stroke:#000000;stroke-width:0.00996677;stroke-miterlimit:4;stroke-dasharray:none"
       id="rect49226-3"
       width="2.9900334"
       height="2.9900331"
       x="22.754984"
       y="39.504986" />
    <rect
       style="fill:none;stroke:#000000;stroke-width:0.00996677;stroke-miterlimit:4;stroke-dasharray:none"
       id="rect49226-5"
       width="2.9900334"
       height="2.9900331"
       x="30.254984"
       y="39.504982" />
    <rect
       style="fill:none;stroke:#000000;stroke-width:0.00996677;stroke-miterlimit:4;stroke-dasharray:none"
       id="rect49226-4"
       width="2.9900334"
       height="2.9900331"
       x="37.754986"
       y="39.504986" />
    <g
       aria-label="GPS LOGGER"
       id="text55034"
       style="font-size:3.52777px;line-height:1.25;stroke-width:0.264583"
       transform="matrix(-1,0,0,1,55.990612,0)">
      <path
         d="m 18.685817,72.428783 q -0.210151,0.09646 -0.45992,0.16881 -0.248046,0.07062 -0.480589,0.07062 -0.299723,0 -0.549492,-0.08268 -0.249769,-0.08268 -0.425468,-0.248046 -0.177422,-0.167087 -0.273885,-0.416856 -0.09646,-0.251491 -0.09646,-0.587388 0,-0.614948 0.358289,-0.969792 0.360012,-0.356566 0.987018,-0.356566 0.218763,0 0.446138,0.0534 0.229099,0.05168 0.492648,0.177422 v 0.404798 h -0.03101 q -0.0534,-0.04134 -0.155029,-0.10852 -0.10163,-0.06718 -0.199815,-0.111965 -0.118855,-0.0534 -0.270439,-0.08785 -0.149862,-0.03617 -0.341064,-0.03617 -0.430636,0 -0.682127,0.277329 -0.249769,0.275607 -0.249769,0.747584 0,0.497815 0.261826,0.775145 0.261827,0.275607 0.713134,0.275607 0.165364,0 0.329006,-0.03273 0.165364,-0.03273 0.289387,-0.08441 V 71.6278 h -0.687295 v -0.299722 h 1.024914 z"
         id="path60682" />
      <path
         d="m 20.959574,70.82854 q 0,0.170532 -0.06029,0.316948 -0.05857,0.144694 -0.165364,0.251492 -0.132636,0.132635 -0.313503,0.199815 -0.180867,0.06546 -0.456474,0.06546 H 19.62288 v 0.956012 h -0.341063 v -2.564868 h 0.695907 q 0.230821,0 0.391018,0.03962 0.160196,0.0379 0.28422,0.120578 0.146416,0.09819 0.225653,0.244601 0.08096,0.146416 0.08096,0.370347 z m -0.354844,0.0086 q 0,-0.132636 -0.04651,-0.230821 -0.04651,-0.09819 -0.141249,-0.160197 -0.08268,-0.0534 -0.18948,-0.07579 -0.105075,-0.02412 -0.266994,-0.02412 H 19.62288 v 1.024913 h 0.287665 q 0.206705,0 0.335896,-0.03617 0.129191,-0.0379 0.210151,-0.118856 0.08096,-0.08268 0.113688,-0.173976 0.03445,-0.0913 0.03445,-0.204983 z"
         id="path60684" />
      <path
         d="m 23.272951,71.886182 q 0,0.149861 -0.07062,0.296278 -0.0689,0.146416 -0.194648,0.248046 -0.137803,0.110243 -0.322116,0.172254 -0.182589,0.06201 -0.440971,0.06201 -0.277329,0 -0.499538,-0.05168 -0.220485,-0.05168 -0.449584,-0.153307 v -0.427191 h 0.02412 q 0.194648,0.161919 0.449584,0.249769 0.254937,0.08785 0.478867,0.08785 0.316948,0 0.492648,-0.118856 0.177422,-0.118855 0.177422,-0.316948 0,-0.170532 -0.08441,-0.251491 -0.08268,-0.08096 -0.253214,-0.125746 -0.129191,-0.03445 -0.280774,-0.05684 -0.149862,-0.02239 -0.318671,-0.05684 -0.341064,-0.07235 -0.506428,-0.246324 -0.163642,-0.175699 -0.163642,-0.456474 0,-0.322115 0.272162,-0.527098 0.272162,-0.206705 0.69074,-0.206705 0.27044,0 0.496093,0.05168 0.225653,0.05168 0.39963,0.127468 v 0.403075 h -0.02412 q -0.146417,-0.124023 -0.38585,-0.204982 -0.237711,-0.08268 -0.48748,-0.08268 -0.273885,0 -0.440971,0.113688 -0.165365,0.113687 -0.165365,0.292832 0,0.160197 0.08268,0.251491 0.08268,0.0913 0.291109,0.139526 0.110243,0.02412 0.313503,0.05857 0.203261,0.03445 0.344509,0.07062 0.285943,0.07579 0.430636,0.229099 0.144694,0.153306 0.144694,0.428913 z"
         id="path60686" />
      <path
         d="m 26.683588,72.618263 h -1.622636 v -2.564868 h 0.341064 v 2.261701 h 1.281572 z"
         id="path60688" />
      <path
         d="m 28.902224,70.34795 q 0.156752,0.172255 0.239434,0.422024 0.08441,0.249768 0.08441,0.566717 0,0.316948 -0.08613,0.568439 -0.08441,0.249769 -0.237712,0.416856 -0.158474,0.173977 -0.375514,0.261826 -0.215318,0.08785 -0.492648,0.08785 -0.270439,0 -0.492647,-0.08957 -0.220486,-0.08957 -0.375515,-0.260104 -0.155029,-0.170532 -0.239433,-0.418579 -0.08268,-0.248046 -0.08268,-0.566716 0,-0.313503 0.08268,-0.56155 0.08268,-0.249769 0.241156,-0.427191 0.151584,-0.168809 0.375514,-0.258381 0.225654,-0.08957 0.490925,-0.08957 0.275607,0 0.49437,0.0913 0.220486,0.08957 0.373792,0.256659 z m -0.03101,0.988741 q 0,-0.499538 -0.223931,-0.769978 -0.223931,-0.272162 -0.611503,-0.272162 -0.391018,0 -0.614948,0.272162 -0.222209,0.27044 -0.222209,0.769978 0,0.504705 0.227376,0.773422 0.227376,0.266994 0.609781,0.266994 0.382405,0 0.608058,-0.266994 0.227376,-0.268717 0.227376,-0.773422 z"
         id="path60690" />
      <path
         d="m 31.906341,72.428783 q -0.21015,0.09646 -0.459919,0.16881 -0.248046,0.07062 -0.48059,0.07062 -0.299722,0 -0.549491,-0.08268 -0.249769,-0.08268 -0.425469,-0.248046 -0.177422,-0.167087 -0.273884,-0.416856 -0.09646,-0.251491 -0.09646,-0.587388 0,-0.614948 0.35829,-0.969792 0.360011,-0.356566 0.987017,-0.356566 0.218763,0 0.446139,0.0534 0.229099,0.05168 0.492648,0.177422 v 0.404798 h -0.03101 q -0.0534,-0.04134 -0.155029,-0.10852 -0.10163,-0.06718 -0.199815,-0.111965 -0.118856,-0.0534 -0.270439,-0.08785 -0.149862,-0.03617 -0.341064,-0.03617 -0.430636,0 -0.682128,0.277329 -0.249768,0.275607 -0.249768,0.747584 0,0.497815 0.261826,0.775145 0.261827,0.275607 0.713133,0.275607 0.165365,0 0.329006,-0.03273 0.165365,-0.03273 0.289388,-0.08441 V 71.6278 h -0.687295 v -0.299722 h 1.024913 z"
         id="path60692" />
      <path
         d="m 34.641741,72.428783 q -0.210151,0.09646 -0.45992,0.16881 -0.248046,0.07062 -0.480589,0.07062 -0.299723,0 -0.549492,-0.08268 -0.249769,-0.08268 -0.425468,-0.248046 -0.177422,-0.167087 -0.273885,-0.416856 -0.09646,-0.251491 -0.09646,-0.587388 0,-0.614948 0.358289,-0.969792 0.360012,-0.356566 0.987018,-0.356566 0.218763,0 0.446138,0.0534 0.229099,0.05168 0.492648,0.177422 v 0.404798 h -0.03101 q -0.0534,-0.04134 -0.155029,-0.10852 -0.10163,-0.06718 -0.199815,-0.111965 -0.118855,-0.0534 -0.270439,-0.08785 -0.149862,-0.03617 -0.341064,-0.03617 -0.430636,0 -0.682127,0.277329 -0.249769,0.275607 -0.249769,0.747584 0,0.497815 0.261826,0.775145 0.261827,0.275607 0.713134,0.275607 0.165364,0 0.329006,-0.03273 0.165364,-0.03273 0.289387,-0.08441 V 71.6278 h -0.687295 v -0.299722 h 1.024914 z"
         id="path60694" />
      <path
         d="m 36.927557,72.618263 h -1.689816 v -2.564868 h 1.689816 v 0.303168 h -1.348752 v 0.702798 h 1.348752 v 0.303168 h -1.348752 v 0.952567 h 1.348752 z"
         id="path60696" />
      <path
         d="m 39.590609,72.618263 h -0.442694 l -0.857827,-1.019746 h -0.480589 v 1.019746 h -0.341064 v -2.564868 h 0.718301 q 0.232543,0 0.387572,0.03101 0.155029,0.02928 0.279052,0.106798 0.139526,0.08785 0.217041,0.222208 0.07924,0.132636 0.07924,0.337619 0,0.277329 -0.139526,0.465086 -0.139526,0.186035 -0.384127,0.280775 z m -0.797538,-1.843122 q 0,-0.110243 -0.03962,-0.194647 -0.0379,-0.08613 -0.127468,-0.144694 -0.07407,-0.04995 -0.1757,-0.0689 -0.10163,-0.02067 -0.239434,-0.02067 h -0.401352 v 0.968069 h 0.344508 q 0.16192,0 0.282498,-0.02756 0.120578,-0.02928 0.204982,-0.106798 0.07752,-0.07235 0.113688,-0.165364 0.0379,-0.09474 0.0379,-0.239434 z"
         id="path60698" />
    </g>
  </g>
</svg>
